HIERARCHY
ROOT Hips
{
    OFFSET 0.0 0.0 0.0
    CHANNELS 6 Xposition Yposition Zposition Zrotation Xrotation Yrotation
    JOINT LeftHipJoint
    {
        OFFSET 0.1 0.0 0.0
        CHANNELS 3 Zrotation Xrotation Yrotation
        JOINT LeftUpLeg
        {
            OFFSET 120.8084473229159 0.0 0.0
            CHANNELS 3 Zrotation Xrotation Yrotation
            JOINT LeftLeg
            {
                OFFSET 0.0 0.0 -403.12087985394965
                CHANNELS 3 Zrotation Xrotation Yrotation
                JOINT LeftFoot
                {
                    OFFSET 0.0 0.0 -393.2652215921106
                    CHANNELS 3 Zrotation Xrotation Yrotation
                    End Site
                    {
                        OFFSET 0.0 -0.1 0.0
                    }
                }
            }
        }
    }
    JOINT LowerBack
    {
        OFFSET 0.0 0.0 0.1
        CHANNELS 3 Zrotation Xrotation Yrotation
        JOINT Spine
        {
            OFFSET 0.0 0.0 217.67061262137068
            CHANNELS 3 Zrotation Xrotation Yrotation
            JOINT Spine1
            {
                OFFSET 0.0 0.0 254.27954516000239
                CHANNELS 3 Zrotation Xrotation Yrotation
                JOINT LeftShoulder
                {
                    OFFSET 0.1 0.0 0.0
                    CHANNELS 3 Zrotation Xrotation Yrotation
                    JOINT LeftArm
                    {
                        OFFSET 145.33235039171217 0.0 0.0
                        CHANNELS 3 Zrotation Xrotation Yrotation
                        JOINT LeftForeArm
                        {
                            OFFSET 259.16130896764287 0.0 0.0
                            CHANNELS 3 Zrotation Xrotation Yrotation
                            JOINT LeftHand
                            {
                                OFFSET 230.8008040852208 0.0 0.0
                                CHANNELS 3 Zrotation Xrotation Yrotation
                                End Site
                                {
                                    OFFSET 0.1 0.0 0.0
                                }
                            }
                        }
                    }
                }
                JOINT Neck
                {
                    OFFSET 0.0 0.0 0.1
                    CHANNELS 3 Zrotation Xrotation Yrotation
                    JOINT Neck1
                    {
                        OFFSET 0.0 0.0 107.273737205601
                        CHANNELS 3 Zrotation Xrotation Yrotation
                        End Site
                        {
                            OFFSET 0.0 0.0 116.16136698532317
                        }
                    }
                }
                JOINT RightShoulder
                {
                    OFFSET -0.1 0.0 0.0
                    CHANNELS 3 Zrotation Xrotation Yrotation
                    JOINT RightArm
                    {
                        OFFSET -145.33235039171217 0.0 0.0
                        CHANNELS 3 Zrotation Xrotation Yrotation
                        JOINT RightForeArm
                        {
                            OFFSET -259.16130896764287 0.0 0.0
                            CHANNELS 3 Zrotation Xrotation Yrotation
                            JOINT RightHand
                            {
                                OFFSET -230.8008040852208 0.0 0.0
                                CHANNELS 3 Zrotation Xrotation Yrotation
                                End Site
                                {
                                    OFFSET -0.1 0.0 0.0
                                }
                            }
                        }
                    }
                }
            }
        }
    }
    JOINT RightHipJoint
    {
        OFFSET -0.1 0.0 0.0
        CHANNELS 3 Zrotation Xrotation Yrotation
        JOINT RightUpLeg
        {
            OFFSET -120.8084473229159 0.0 0.0
            CHANNELS 3 Zrotation Xrotation Yrotation
            JOINT RightLeg
            {
                OFFSET 0.0 0.0 -403.12087985394965
                CHANNELS 3 Zrotation Xrotation Yrotation
                JOINT RightFoot
                {
                    OFFSET 0.0 0.0 -393.2652215921106
                    CHANNELS 3 Zrotation Xrotation Yrotation
                    End Site
                    {
                        OFFSET 0.0 -0.1 0.0
                    }
                }
            }
        }
    }
}
MOTION
Frames: 8
Frame Time: 0.03333333333333333
0.0 0.0 793.6212507858463 24.07115931940439 7.890541202676593 4.85066116082848 0.0 0.0 -1.987846675914698e-16 -0.42292939700701715 -24.39903611301056 -1.1225890215465637 -0.057532693543580586 31.00739663871816 0.06681854735666361 0.0 0.0 3.975693351829396e-16 0.0 0.0 -1.987846675914698e-16 -0.06073134107189139 -3.707047325774483 -0.2744918830065283 0.28460666346906066 -1.3914883813788158e-15 3.455993470679246e-18 0.0 0.0 -2.981770013872047e-16 -23.710124390247298 23.06995066906404 76.13094456774856 -45.6308414316647 1.1575262665499373e-15 1.3495778850451926e-15 0.0 0.0 -1.1927080055488188e-15 0.0 0.0 -2.981770013872047e-16 -3.233540207735478 -10.778257073922699 -4.930337572422099 0.0 0.0 -2.981770013872047e-16 9.84863817194945 20.196189631472205 -69.65900799180625 73.97560673600952 3.8271296609148195e-15 5.081022622038206e-15 0.0 0.0 -3.1805546814635168e-15 0.0 0.0 -1.987846675914698e-16 -0.3511972350363703 -20.427646778392006 -3.5445520858310746 -1.5698241320114126 31.67628797686048 0.5844623904414257 0.0 0.0 7.951386703658792e-16
0.0 0.0 793.6212507858463 24.16639631071026 7.777654434224578 4.825617240908496 0.0 0.0 0.0 -0.4254603198337528 -24.247732175104325 -1.1004069851916296 -0.036922306314604636 30.997738157952426 0.04032250007416768 0.0 0.0 0.0 0.0 0.0 0.0 -0.06098870314806176 -3.675342332043179 -0.20572182060631203 0.509187305034277 -3.984487065167177e-16 -1.970161125959253e-16 0.0 0.0 -3.975693351829396e-16 -23.644774770369754 23.260664871614335 75.9439149539257 -46.46816589788889 4.177306909396997e-15 -1.6679218052004399e-15 0.0 0.0 -2.782985346280577e-15 0.0 0.0 -3.975693351829396e-16 -3.493561357991334 -10.81907083721072 -4.9451122398287835 0.0 0.0 -3.975693351829396e-16 9.742300821891826 19.227884900718504 -69.36829073905811 73.86901223076515 -1.2080361721892167e-14 5.1025129160536054e-15 0.0 0.0 1.987846675914698e-15 0.0 0.0 0.0 -0.3516281298111039 -20.213994667760275 -3.43722390724232 -1.4966314248419712 31.681277344713898 0.5001589924106182 0.0 0.0 7.951386703658792e-16
0.0 0.0 793.6212507858463 24.329835096836373 7.840332261092863 4.846582360747132 -3.1805546814635168e-15 -5.517382872562698e-33 1.987846675914698e-16 -0.4243166752297382 -24.521571572451812 -1.0844506135191323 -0.03586933405858741 31.179477246014994 -0.05618742717357769 -1.1034765745125397e-32 -1.5902773407317584e-15 -7.951386703658792e-16 -3.1805546814635168e-15 -5.517382872562698e-33 1.987846675914698e-16 -0.060303414340544106 -3.6908311605658684 -0.17008793467023026 0.6682546780795354 -5.957642472004073e-16 1.0286833526481825e-16 0.0 0.0 0.0 -23.459311015775338 23.452210679271765 75.73182624120291 -47.392701336843 -3.5151363129034487e-15 8.009090011990438e-15 0.0 0.0 2.782985346280577e-15 0.0 0.0 0.0 -3.773179865113423 -10.961993313640097 -4.988162069245177 0.0 0.0 0.0 9.53363203959671 18.431655637231753 -69.18929887758344 73.82565988942149 8.906503896462683e-15 1.2655484963172962e-15 0.0 0.0 2.782985346280577e-15 -3.1805546814635168e-15 -5.517382872562698e-33 1.987846675914698e-16 -0.3484443346141532 -20.335791452421702 -3.4239954963440766 -1.5050852487746227 31.808758266587947 0.5595025498145654 0.0 0.0 1.5902773407317584e-15
0.0 0.0 793.6212507858463 24.414909468384042 7.848707056823049 4.882866515679909 0.0 0.0 -3.975693351829396e-16 -0.42705401599244763 -24.716838592639302 -1.1234570594012712 -0.06039856441853562 31.283525394289033 -0.08046045227096427 0.0 0.0 -3.9756933518293955e-16 0.0 0.0 -3.975693351829396e-16 -0.060489448283092995 -3.712055175092538 -0.0905482283128789 0.8525967408988454 -8.136042359390082e-16 -2.4788235441888684e-15 0.0 0.0 -3.975693351829396e-16 -23.161148501315665 23.55218597542758 75.33001977676803 -48.41101035375631 -2.1190997116790598e-15 4.7139992578394305e-15 0.0 0.0 7.951386703658792e-16 0.0 0.0 -3.975693351829396e-16 -3.9699717893575337 -11.081020480909855 -5.061871583466946 0.0 0.0 -3.975693351829396e-16 9.484804576070573 17.61881446435036 -68.93192912707565 73.83662994079043 -1.2727589585625612e-14 -6.350356287285332e-15 0.0 0.0 -3.975693351829396e-16 0.0 0.0 -3.975693351829396e-16 -0.35060689241425896 -20.50396294704347 -3.4339650060463702 -1.5266871762154746 32.052744708105315 0.6101711372793952 0.0 0.0 7.951386703658792e-16
0.0 0.0 793.6212507858463 24.55915529696073 7.853678561293654 4.90399238201623 0.0 0.0 -7.951386703658792e-16 -0.4453384768866624 -24.789089917449118 -1.1269713514159978 -0.03775297352603143 31.299866461914736 -0.08777738531585623 0.0 0.0 0.0 0.0 0.0 -7.951386703658792e-16 -0.06296884408259046 -3.718509721650495 -0.0539344752830921 0.9734021145520683 2.0468746694183803e-16 6.940326719954629e-16 0.0 0.0 1.987846675914698e-16 -23.054086063751186 23.341835038379493 74.93384261367545 -49.614648030203206 4.677002543098331e-15 -2.1489380135823685e-14 -3.1805546814635164e-15 3.310429723537619e-32 -1.1927080055488186e-15 0.0 0.0 1.987846675914698e-16 -4.151951871190792 -11.241386277216062 -5.072886506323528 0.0 0.0 1.987846675914698e-16 9.46570932136937 16.535416848214524 -68.64741886223933 74.12508496905879 -2.097870954275154e-14 3.887223893853143e-15 0.0 0.0 2.782985346280577e-15 0.0 0.0 -7.951386703658792e-16 -0.36521041730356846 -20.55237883366563 -3.435513676570002 -1.5076926258988268 32.13326128579875 0.5809598520730301 0.0 0.0 7.951386703658792e-16
0.0 0.0 793.6212507858463 24.651840525621495 8.067913571930385 4.969741144478128 0.0 0.0 3.975693351829396e-16 -0.4646847700491169 -24.992097592025424 -1.210311048912288 -0.06556602004329853 31.33159140869937 -0.04917717300090896 0.0 0.0 3.975693351829396e-16 0.0 0.0 3.975693351829396e-16 -0.06659743434520642 -3.804449851009569 -0.0747847957994652 1.0934543465584725 6.039141015152432e-16 7.894120341921037e-16 5.17254644302753e-34 -1.987846675914698e-16 2.981770013872047e-16 -23.064196671891295 23.170208360310834 74.65949855314284 -50.515991702028266 5.251451302547287e-15 -3.676712804830369e-15 -1.6552148617688095e-32 -1.5902773407317582e-15 -1.1927080055488186e-15 5.17254644302753e-34 -1.987846675914698e-16 2.981770013872047e-16 -4.360579064038749 -11.426138845624436 -5.075813087890457 5.17254644302753e-34 -1.987846675914698e-16 2.981770013872047e-16 9.423045319072305 15.728484488335704 -68.37945113461163 74.96721124698512 -1.935476926035475e-15 -2.523857593162451e-15 0.0 0.0 -1.5902773407317584e-15 0.0 0.0 3.975693351829396e-16 -0.3804748068094745 -20.703029644386792 -3.417206829931387 -1.4735050886816785 32.13191152879356 0.43622445446482594 0.0 0.0 7.951386703658792e-16
0.0 0.0 793.6212507858463 24.71606559207516 8.18373774974415 5.008976193103897 0.0 0.0 1.987846675914698e-16 -0.4754803198540533 -25.095098247705128 -1.282119744388017 -0.09703950399583099 31.5161094530122 0.024602621478615236 0.0 0.0 3.975693351829395e-16 0.0 0.0 1.987846675914698e-16 -0.06840524681265313 -3.837099514731719 -0.07261667200273096 1.2248678146188026 4.249532983542056e-18 3.975466233628785e-16 0.0 0.0 -1.987846675914698e-16 -23.11662363124703 23.011745946691367 74.51318287187043 -51.42640990212367 -8.955697223202042e-15 7.601517528550112e-15 6.620859447075238e-32 1.5902773407317582e-15 -4.770832022195274e-15 0.0 0.0 -1.987846675914698e-16 -4.556181572363751 -11.473376798132952 -5.0486560322668135 0.0 0.0 -1.987846675914698e-16 9.661490740838136 15.09930132428626 -68.20763144734823 75.70889279944257 -3.070783630835422e-15 6.414820987485987e-15 0.0 0.0 1.5902773407317584e-15 0.0 0.0 1.987846675914698e-16 -0.38604744280981873 -20.63434767572987 -3.373283321720038 -1.429636944472717 32.05690074673973 0.22751151428706368 -2.2069531490250793e-32 -3.1805546814635168e-15 -7.951386703658792e-16
0.0 0.0 793.6212507858463 24.749532792385768 8.438847617198821 5.039078897119931 0.0 0.0 7.951386703658792e-16 -0.5060685134601152 -25.368372528477202 -1.3253413086128014 -0.08667141146068186 31.461538424980784 0.039958891933814335 0.0 0.0 -3.975693351829396e-16 0.0 0.0 7.951386703658792e-16 -0.07217320389095326 -3.852875384423203 -0.04612494698665981 1.4952054245251938 -3.890541528311853e-18 -2.9815161888354984e-16 0.0 0.0 2.981770013872047e-16 -23.273683515125832 23.021143885211064 74.36619743616558 -52.5986863515912 -7.480645535027888e-15 -2.810113591209507e-15 -3.1805546814635164e-15 3.1805546814635164e-15 7.951386703658792e-16 0.0 0.0 2.981770013872047e-16 -4.810329027223316 -11.750899607439447 -5.012615130817896 0.0 0.0 2.981770013872047e-16 10.029211595945885 14.044011853610515 -67.91776725380318 76.22000541696444 -1.0893954226175282e-14 -3.581735107616299e-15 0.0 0.0 -3.975693351829396e-16 0.0 0.0 7.951386703658792e-16 -0.40912081948082785 -20.806668385261222 -3.403964863942931 -1.4106880396754413 32.00750186170924 0.2473018302727653 0.0 0.0 0.0
